<mxfile host="app.diagrams.net" modified="2024-07-08T17:11:33.694Z" agent="Mozilla/5.0 (X11; Linux x86_64) AppleWebKit/537.36 (KHTML, like Gecko) Chrome/125.0.0.0 Safari/537.36" version="24.6.4" etag="hEm7vclQj7o8X_90_wwu" type="github">
  <diagram name="Page-1" id="fFdppn_76FwF81Ye9XXP">
    <mxGraphModel>
      <root>
        <mxCell id="0" />
        <mxCell id="1" parent="0" />
      </root>
    </mxGraphModel>
  </diagram>
</mxfile>
